<svg width="61" height="61" xmlns="http://www.w3.org/2000/svg">

 <g>
  <title>background</title>
  <rect fill="none" id="canvas_background" height="63" width="63" y="-1" x="-1"/>
 </g>
 <g>
  <title>Layer 1</title>
  <path id="svg_1" fill="#51DED6" d="m48.8057,11.1547c-5.7968,-3.38314 -11.5005,-7.04705 -17.4436,-10.20284c-0.9568,-0.55841 -2.0314,-0.88103 -3.136,-0.94146c-1.1046,-0.06043 -2.2078,0.14305 -3.2192,0.59379c-4.1481,1.78293 -8.29629,3.50346 -12.44446,5.16158c-1.29805,0.49026 -2.41119,1.37647 -3.18361,2.53458c-0.77243,1.15811 -1.16546,2.53015 -1.12409,3.92405l0,30.1003c-0.05414,1.688 0.3568,3.3582 1.1874,4.826c0.8306,1.4678 2.04851,2.6761 3.51916,3.4913l15.2897,9.0529c1.1309,0.6861 2.3977,1.1143 3.711,1.2544c1.3133,0.1402 2.6413,-0.0113 3.8901,-0.4435c1.2488,-0.4323 2.3881,-1.1349 3.3375,-2.0583c0.9495,-0.9233 1.6859,-2.0449 2.1574,-3.2857c0.2127,-0.575 0.4121,-0.7756 1.0769,-0.6419c1.1614,0.2418 2.3589,0.2499 3.5235,0.0241c1.1646,-0.2259 2.2732,-0.6814 3.2619,-1.3402c0.9888,-0.6588 1.838,-1.5079 2.499,-2.4984c0.6609,-0.9905 1.1204,-2.1027 1.3519,-3.2726c0.115,-0.568 0.1774,-1.1455 0.1862,-1.725l0,-26.7439c0.0459,-1.5866 -0.3443,-3.1552 -1.1279,-4.5331c-0.7835,-1.3778 -1.9298,-2.5115 -3.3128,-3.2761zm-11.7664,27.5061l0,12.944c0.0538,0.8065 -0.1214,1.6117 -0.5051,2.322c-0.3837,0.7102 -0.9601,1.2961 -1.6621,1.6896c-0.6743,0.3736 -1.4394,0.5491 -2.2081,0.5066c-0.7687,-0.0426 -1.51,-0.3015 -2.1395,-0.7473c-4.8528,-2.9017 -9.6923,-5.8168 -14.62491,-8.6383c-0.88388,-0.4394 -1.61837,-1.1326 -2.11061,-1.9918c-0.49224,-0.8592 -0.72012,-1.846 -0.65484,-2.8354c0,-8.4645 0.09307,-16.9289 0,-25.4068c-0.07414,-0.8097 0.08264,-1.6239 0.45201,-2.3472c0.36936,-0.7234 0.936,-1.3259 1.63356,-1.737c0.69756,-0.4111 1.49715,-0.6139 2.30512,-0.5844c0.80797,0.0294 1.59087,0.2898 2.25697,0.7507c4.906,3.0621 9.9317,5.9371 14.9308,8.8656c0.7515,0.4059 1.3721,1.0192 1.789,1.7677c0.4169,0.7486 0.6126,1.6012 0.5643,2.4578c-0.0399,4.3191 -0.0266,8.6383 -0.0266,12.9842zm11.2612,6.9668c0.0275,0.6121 -0.0848,1.2225 -0.3283,1.7843c-0.2436,0.5617 -0.6118,1.0599 -1.0765,1.4562c-0.4647,0.3964 -1.0135,0.6804 -1.6043,0.8303c-0.5908,0.1499 -1.2078,0.1616 -1.8039,0.0343c-1.3295,-0.1738 -1.5422,-0.4947 -1.5422,-1.7784l0,-22.505c0.0559,-1.6607 -0.3484,-3.3043 -1.1678,-4.7471c-0.8194,-1.4428 -2.0217,-2.628 -3.4723,-3.4232c-5.3182,-3.2092 -10.7959,-6.3784 -16.3534,-9.64116c2.1805,-0.90929 4.2546,-1.79184 6.3286,-2.67439c0.3962,-0.10973 0.8111,-0.13309 1.2169,-0.06852c0.4059,0.06457 0.7933,0.21559 1.1364,0.44294c3.2034,1.59872 6.311,3.3847 9.3068,5.34873c2.34,1.471 4.68,2.9419 7.0333,4.3593c0.7154,0.3711 1.3135,0.9357 1.727,1.6303c0.4134,0.6946 0.6257,1.4916 0.613,2.3011c0,8.8344 0,17.6732 0,26.5165l-0.0133,0.1338z"/>
 </g>
</svg>